<?xml version="1.0" standalone="no"?><!DOCTYPE svg PUBLIC "-//W3C//DTD SVG 1.1//EN" "http://www.w3.org/Graphics/SVG/1.1/DTD/svg11.dtd"><svg t="1673073655030" class="icon" viewBox="0 0 1024 1024" version="1.1" xmlns="http://www.w3.org/2000/svg" p-id="1522" xmlns:xlink="http://www.w3.org/1999/xlink" width="200" height="200"><path d="M499.47787 257.29433a1.345692 1.345692 0 0 0-2.660567 0c-3.307732 20.185386-116.49998 331.574495-116.49998 331.574495a1.119698 1.119698 0 0 0 1.027246 1.510052h234.027206a1.119698 1.119698 0 0 0 1.027246-1.510052S503.350588 279.523936 499.47787 257.29433z" p-id="1523" fill="#5978f3"></path><path d="M922.590265 0H101.409735a76.016211 76.016211 0 0 0-76.016211 76.016211v871.947033a76.016211 76.016211 0 0 0 76.016211 76.016211h821.18053a76.016211 76.016211 0 0 0 76.016211-76.016211V76.036756a76.016211 76.016211 0 0 0-76.016211-76.036756zM784.713294 856.620521h-51.649934a22.835681 22.835681 0 0 1-21.284539-14.710164l-60.895149-159.058786a22.835681 22.835681 0 0 0-21.284539-14.679347H367.055576a22.835681 22.835681 0 0 0-21.479716 15.090245l-57.094338 158.267807a22.835681 22.835681 0 0 1-21.500261 15.090245h-51.362305a22.835681 22.835681 0 0 1-21.222904-31.146102l247.915573-634.108743a36.477509 36.477509 0 0 1 33.981301-23.195217h47.397135a37.093857 37.093857 0 0 1 34.546286 23.62666l247.761486 633.6773a22.835681 22.835681 0 0 1-21.284539 31.146102z m135.473215-489.842302a12.419405 12.419405 0 0 1-12.419405 12.419405h-51.988925a12.419405 12.419405 0 0 0-12.419405 12.419406v50.335059a12.419405 12.419405 0 0 1-12.419406 12.450222h-15.182697a12.419405 12.419405 0 0 1-12.419405-12.419405v-50.335059a12.419405 12.419405 0 0 0-12.460495-12.450223h-51.958108a12.419405 12.419405 0 0 1-12.419405-12.419405v-13.559648a12.419405 12.419405 0 0 1 12.419405-12.419406h51.958108a12.419405 12.419405 0 0 0 12.419405-12.419405v-50.335059a12.419405 12.419405 0 0 1 12.460495-12.419405h15.182697a12.419405 12.419405 0 0 1 12.419406 12.419405v50.335059a12.419405 12.419405 0 0 0 12.419405 12.419405h51.988925a12.419405 12.419405 0 0 1 12.419405 12.419406z" p-id="1524" fill="#5978f3"></path></svg>